<svg xmlns="http://www.w3.org/2000/svg" width="28" height="28" viewBox="0 0 28 28" fill="none">
<rect x="5.8335" y="9.33301" width="16.3333" height="5.83333" fill="#222A35"/>
<path fill-rule="evenodd" clip-rule="evenodd" d="M2.71497 6.57803C2.3335 7.32672 2.3335 8.30681 2.3335 10.267V17.7337C2.3335 19.6938 2.3335 20.6739 2.71497 21.4226C3.05053 22.0812 3.58596 22.6166 4.24453 22.9522C4.99322 23.3337 5.97331 23.3337 7.9335 23.3337H20.0668C22.027 23.3337 23.0071 23.3337 23.7558 22.9522C24.4144 22.6166 24.9498 22.0812 25.2854 21.4226C25.6668 20.6739 25.6668 19.6938 25.6668 17.7337V10.267C25.6668 8.30681 25.6668 7.32672 25.2854 6.57803C24.9498 5.91946 24.4144 5.38403 23.7558 5.04847C23.0071 4.66699 22.027 4.66699 20.0668 4.66699H7.9335C5.97331 4.66699 4.99322 4.66699 4.24453 5.04847C3.58596 5.38403 3.05053 5.91946 2.71497 6.57803ZM8.8268 9.53827C8.29547 9.17378 7.56927 9.30903 7.20477 9.84036C6.84028 10.3717 6.97553 11.0979 7.50686 11.4624L12.0203 14.5586C13.2133 15.377 14.787 15.377 15.9801 14.5586L20.4935 11.4624C21.0248 11.0979 21.16 10.3717 20.7956 9.84036C20.4311 9.30903 19.7049 9.17378 19.1735 9.53827L14.6601 12.6345C14.2624 12.9073 13.7379 12.9073 13.3402 12.6345L8.8268 9.53827Z" fill="#FF3516"/>
</svg>