<svg width="1920" height="500" viewBox="0 0 1920 500" fill="none" xmlns="http://www.w3.org/2000/svg">
<path fill-rule="evenodd" clip-rule="evenodd" d="M358.301 127.96C426.747 127.96 483.87 188.213 483.87 260.318C483.87 331.928 426.748 392.178 357.81 392.179C332.696 392.179 312.013 383.784 296.748 367.98V462.747L221.902 496V133.392H294.286V154.628C310.043 136.849 331.71 127.961 358.301 127.96ZM348.944 198.583C327.771 198.583 307.581 210.436 296.748 229.202V290.444C307.581 309.21 327.771 321.063 348.944 321.063C382.429 321.063 409.021 293.404 409.021 259.821C409.021 226.239 382.429 198.583 348.944 198.583Z" fill="#FF3516"/>
<path d="M857.867 262.293L920.407 133.392H1001.16L850.823 442.274L747.183 490.446L817.983 344.275L711.126 133.392H792.868L857.867 262.293Z" fill="#FF3516"/>
<path fill-rule="evenodd" clip-rule="evenodd" d="M1795.45 127.365C1870.88 127.366 1920 168.994 1920 232.428V350.064L1847.06 383.745V368.712C1833.16 384.57 1811.33 392.502 1783.55 392.502C1731.44 392.502 1696.71 362.271 1696.71 316.678C1696.71 276.536 1724 250.764 1774.61 242.339L1844.58 230.446C1843.09 207.154 1823.24 193.276 1789.5 193.276C1759.23 193.276 1730.95 204.675 1709.11 224.003V152.145C1729.95 136.286 1761.22 127.365 1795.45 127.365ZM1793.47 290.906C1776.6 293.879 1767.67 301.81 1767.67 313.704C1767.67 327.58 1779.58 336.006 1798.93 336.006C1817.78 336.006 1836.14 327.578 1844.58 317.667V281.987L1793.47 290.906Z" fill="#2E3846"/>
<path fill-rule="evenodd" clip-rule="evenodd" d="M585.647 127.96C660.495 127.96 709.245 169.446 709.245 232.661V352.091L636.859 385.4V368.473C623.071 384.277 601.404 392.179 573.828 392.179C522.125 392.178 487.655 362.053 487.655 316.618C487.655 276.615 514.739 250.933 564.966 242.537L634.396 230.685C632.919 207.473 613.222 193.644 579.738 193.644C549.701 193.644 521.633 205.003 499.967 224.264V152.655C520.648 136.851 551.67 127.96 585.647 127.96ZM583.678 290.937C566.936 293.9 558.072 301.803 558.072 313.656C558.073 327.483 569.89 335.878 589.094 335.878C607.806 335.878 626.025 327.482 634.396 317.605V282.047L583.678 290.937Z" fill="#FF3516"/>
<path d="M1109.04 230.446L1193.39 132.816H1288.66L1179.5 259.685L1288.66 386.554H1193.39L1109.04 288.924V341.894L1033.61 376.405V0H1109.04V230.446Z" fill="#2E3846"/>
<path d="M1390.09 386.554H1314.67V132.816H1390.09V386.554Z" fill="#2E3846"/>
<path d="M1521.4 386.554H1445.98V83.5606L1521.4 49.3012V386.554Z" fill="#2E3846"/>
<path d="M1652.72 386.554H1577.3V81.6102L1652.72 46.9369V386.554Z" fill="#2E3846"/>
<path d="M188.001 386.438H0L188.001 302.14V386.438Z" fill="#FF3516"/>
<path d="M188.001 302.135H0L188.001 217.84V302.135Z" fill="#FF3516"/>
<path d="M188.001 217.84H0L188.001 133.539V217.84Z" fill="#FF3516"/>
<path d="M1352.87 0.992204C1378.18 0.992885 1399.02 21.8067 1399.02 46.5854C1399.02 71.8593 1378.18 92.674 1352.87 92.6747C1327.57 92.6747 1306.72 71.8597 1306.72 46.5854C1306.72 21.8063 1327.57 0.992204 1352.87 0.992204Z" fill="#2E3846"/>
</svg>
