<svg width="662" height="178" viewBox="0 0 662 178" fill="none" xmlns="http://www.w3.org/2000/svg">
<path fill-rule="evenodd" clip-rule="evenodd" d="M123.486 51.1465C147.048 51.1465 166.712 71.9025 166.712 96.7412C166.712 121.41 147.049 142.165 123.317 142.165C114.672 142.165 107.553 139.273 102.298 133.829V166.475L76.5332 177.93V53.0176H101.45V60.333C106.874 54.2085 114.333 51.1466 123.486 51.1465ZM120.266 75.4746C112.977 75.4748 106.027 79.5578 102.298 86.0225V107.119C106.027 113.584 112.977 117.667 120.266 117.667C131.792 117.667 140.946 108.139 140.946 96.5703C140.946 85.0018 131.792 75.4746 120.266 75.4746Z" fill="#FF3516"/>
<path d="M295.455 97.4219L316.983 53.0176H344.782L293.03 159.422L257.354 176.017L281.726 125.663L244.941 53.0176H273.08L295.455 97.4219Z" fill="#FF3516"/>
<path fill-rule="evenodd" clip-rule="evenodd" d="M618.206 50.9414C644.169 50.9416 661.079 65.2819 661.079 87.1338V127.657L635.97 139.26V134.081C631.187 139.544 623.672 142.276 614.106 142.276C596.172 142.276 584.215 131.862 584.215 116.156C584.215 102.328 593.609 93.4501 611.031 90.5479L635.115 86.4512C634.603 78.4275 627.771 73.6466 616.156 73.6465C605.737 73.6465 596 77.5734 588.484 84.2314V59.4775C595.658 54.0145 606.42 50.9414 618.206 50.9414ZM617.522 107.278C611.715 108.303 608.641 111.035 608.641 115.132C608.641 119.912 612.74 122.814 619.401 122.814C625.892 122.814 632.211 119.911 635.115 116.497V104.206L617.522 107.278Z" fill="#222A35"/>
<path fill-rule="evenodd" clip-rule="evenodd" d="M201.747 51.1465C227.512 51.1465 244.294 65.4374 244.294 87.2139V128.355L219.376 139.83V133.999C214.63 139.443 207.171 142.165 197.679 142.165C179.881 142.165 168.015 131.787 168.015 116.136C168.015 102.355 177.338 93.5084 194.628 90.6162L218.528 86.5332C218.02 78.5372 211.24 73.7734 199.713 73.7734C189.373 73.7735 179.711 77.6865 172.253 84.3213V59.6533C179.372 54.2092 190.051 51.1465 201.747 51.1465ZM201.069 107.289C195.306 108.31 192.255 111.032 192.255 115.115C192.255 119.878 196.323 122.77 202.934 122.771C209.375 122.771 215.647 119.878 218.528 116.476V104.227L201.069 107.289Z" fill="#FF3516"/>
<path d="M381.916 86.4512L410.954 52.8193H443.749L406.171 96.5234L443.749 140.228H410.954L381.916 106.596V124.843L355.953 136.731V7.06641H381.916V86.4512Z" fill="#222A35"/>
<path d="M478.664 140.228H452.701V52.8193H478.664V140.228Z" fill="#222A35"/>
<path d="M523.868 140.228H497.905V35.8516L523.868 24.0498V140.228Z" fill="#222A35"/>
<path d="M569.072 140.228H543.109V35.1797L569.072 23.2354V140.228Z" fill="#222A35"/>
<path d="M64.8633 140.188H0.146484L64.8633 111.148V140.188Z" fill="#FF3516"/>
<path d="M64.8633 111.146H0.146484L64.8633 82.1084V111.146Z" fill="#FF3516"/>
<path d="M64.8633 82.1084H0.146484L64.8633 53.0684V82.1084Z" fill="#FF3516"/>
<path d="M465.854 7.4082C474.565 7.40844 481.738 14.5784 481.738 23.1143C481.738 31.8207 474.565 38.991 465.854 38.9912C457.142 38.9912 449.968 31.8208 449.968 23.1143C449.968 14.5783 457.142 7.4082 465.854 7.4082Z" fill="#222A35"/>
</svg>
