<svg width="144" height="45" viewBox="0 0 144 45" fill="none" xmlns="http://www.w3.org/2000/svg">
<path d="M20.4217 16.0977C19.5348 14.247 18.2834 12.7892 16.6676 11.7267C15.0649 10.6509 13.1703 10.1108 10.9836 10.1108C8.79701 10.1108 6.92872 10.6509 5.42706 11.7267C5.12628 11.9418 4.83868 12.1723 4.56865 12.4204V10.7585H0L0 44.3549H5.2119V32.8443C5.30411 32.9146 5.39632 32.9826 5.49072 33.0485C7.02092 34.1264 8.91556 34.6643 11.1768 34.6643C13.3064 34.6643 15.1659 34.1264 16.7532 33.0485C18.3405 31.9727 19.5699 30.5084 20.4437 28.6555C21.3152 26.8047 21.7521 24.7147 21.7521 22.3898C21.7521 20.0648 21.3087 17.9375 20.4217 16.0999V16.0977ZM15.6379 26.2625C15.223 27.4129 14.5797 28.324 13.7081 28.998C12.8344 29.6741 11.7257 30.01 10.3821 30.01C9.0385 30.01 7.87274 29.6939 7.01434 29.0638C6.1713 28.4162 5.5478 27.5205 5.14824 26.3722C4.76185 25.2219 4.56865 23.8936 4.56865 22.3876C4.56865 20.8815 4.76185 19.5379 5.14824 18.4029C5.5478 17.2547 6.16252 16.3634 6.99238 15.7333C7.82225 15.0856 8.8958 14.7629 10.2109 14.7629C11.5984 14.7629 12.7422 15.1076 13.6423 15.797C14.5446 16.4709 15.2098 17.3908 15.6379 18.5544C16.066 19.7026 16.2812 20.9803 16.2812 22.3876C16.2812 23.7948 16.066 25.1011 15.6379 26.2625Z" fill="#242424"/>
<path d="M44.9636 16.961C44.8779 16.0982 44.6277 15.2596 44.2127 14.4407C43.4553 12.9039 42.2896 11.7996 40.7176 11.1234C39.1589 10.4494 37.3499 10.1113 35.2884 10.1113C32.5573 10.1113 30.3838 10.7085 28.768 11.8984C27.1654 13.0905 26.0786 14.6712 25.5078 16.6383L30.2258 18.1224C30.6122 16.9325 31.2927 16.0916 32.2653 15.6042C33.2379 15.1147 34.2456 14.871 35.2884 14.871C37.0206 14.871 38.25 15.253 38.9789 16.0126C39.5848 16.6471 39.9339 17.5735 40.0261 18.7942C39.0887 18.9347 38.1754 19.0708 37.284 19.2003C35.8263 19.4001 34.4673 19.624 33.2093 19.8677C31.9645 20.1114 30.8778 20.3837 29.947 20.6866C28.7175 21.1016 27.7164 21.6416 26.9458 22.3024C26.173 22.9479 25.6 23.7229 25.229 24.6274C24.8558 25.5165 24.6714 26.522 24.6714 27.6417C24.6714 28.9194 24.9634 30.0896 25.5496 31.1521C26.1511 32.2147 27.0315 33.0687 28.1884 33.7164C29.3476 34.3465 30.7637 34.6626 32.4366 34.6626C34.5244 34.6626 36.2632 34.2762 37.6485 33.499C38.7264 32.8931 39.699 32.0237 40.5662 30.8887V34.0172H45.0931V19.7382C45.0931 18.7327 45.0492 17.8084 44.9636 16.961ZM39.901 24.4122C39.8724 25.2597 39.7231 26.0127 39.4509 26.6735C39.2797 27.2048 38.9438 27.7712 38.4432 28.375C37.9558 28.9765 37.2994 29.488 36.4695 29.903C35.6397 30.3201 34.6386 30.5286 33.4662 30.5286C32.6517 30.5286 31.9645 30.3991 31.4069 30.1401C30.8624 29.881 30.4475 29.5385 30.1621 29.106C29.8767 28.6625 29.734 28.151 29.734 27.578C29.734 27.0753 29.8416 26.6384 30.0545 26.263C30.2829 25.8897 30.6056 25.5604 31.0205 25.2728C31.4354 24.9852 31.9426 24.735 32.5441 24.5198C33.1588 24.3178 33.8658 24.14 34.6671 23.9819C35.4684 23.8085 36.4256 23.6285 37.5409 23.4419C38.2566 23.3233 39.0601 23.1916 39.9558 23.0511C39.9449 23.4463 39.9273 23.9007 39.901 24.4122Z" fill="#242424"/>
<path d="M64.7151 10.7598L58.4209 27.4032L51.951 10.7598H46.5679L55.9335 33.8555L52.1245 44.3561H56.9719L69.8853 10.7598H64.7151Z" fill="#242424"/>
<path d="M72.7471 34.0162L72.791 2.3584H78.0248V21.9568L86.4991 10.758H92.9558L83.9678 22.3871L93.7286 34.0162H86.8855L78.0248 22.8174V34.0162H72.7471Z" fill="#242424"/>
<path d="M102.22 10.7559H97.0498V34.014H102.22V10.7559Z" fill="#242424"/>
<path d="M111.338 2.35938H106.167V34.0172H111.338V2.35938Z" fill="#242424"/>
<path d="M120.464 2.35742H115.293V34.0152H120.464V2.35742Z" fill="#242424"/>
<path d="M143.873 16.9591C143.785 16.0963 143.534 15.2576 143.119 14.4387C142.362 12.9019 141.196 11.7976 139.624 11.1215C138.066 10.4475 136.257 10.1094 134.195 10.1094C131.464 10.1094 129.291 10.7065 127.675 11.8964C126.072 13.0885 124.985 14.6692 124.415 16.6363L129.133 18.1204C129.519 16.9305 130.199 16.0897 131.172 15.6023C132.145 15.1127 133.152 14.869 134.195 14.869C135.927 14.869 137.157 15.251 137.886 16.0106C138.492 16.6451 138.841 17.5716 138.933 18.7922C137.995 18.9327 137.082 19.0688 136.191 19.1984C134.733 19.3982 133.374 19.6221 132.116 19.8658C130.871 20.1095 129.785 20.3817 128.856 20.6847C127.624 21.0996 126.623 21.6397 125.853 22.3005C125.08 22.9459 124.507 23.7209 124.136 24.6254C123.763 25.5146 123.578 26.5201 123.578 27.6397C123.578 28.9175 123.87 30.0876 124.456 31.1502C125.058 32.2128 125.938 33.0668 127.095 33.7144C128.254 34.3445 129.67 34.6607 131.343 34.6607C133.431 34.6607 135.168 34.2743 136.555 33.4971C137.633 32.8912 138.608 32.0196 139.473 30.8824V34.0152H144V19.7363C144 18.7308 143.958 17.8065 143.873 16.9591ZM138.81 24.4103C138.779 25.2577 138.63 26.0107 138.358 26.6716C138.186 27.2028 137.85 27.7693 137.35 28.373C136.863 28.9745 136.206 29.4861 135.376 29.901C134.546 30.3181 133.545 30.5267 132.373 30.5267C131.558 30.5267 130.871 30.3972 130.314 30.1381C129.769 29.8791 129.354 29.5366 129.069 29.1041C128.783 28.6606 128.641 28.1491 128.641 27.5761C128.641 27.0733 128.748 26.6364 128.961 26.261C129.192 25.8878 129.512 25.5585 129.927 25.2709C130.342 24.9833 130.849 24.733 131.451 24.5179C132.066 24.3159 132.773 24.1381 133.574 23.98C134.375 23.8065 135.335 23.6265 136.45 23.4399C137.163 23.3214 137.967 23.1896 138.863 23.0469C138.852 23.4421 138.834 23.8966 138.81 24.4103Z" fill="#242424"/>
<path d="M102.213 2.35986H97.041V7.23806H102.213V2.35986Z" fill="#FF3516"/>
<path d="M28.4116 0L42.6423 3.55437V8.35573L28.4116 5.01212V0Z" fill="#FF3516"/>
</svg>
