<svg width="130" height="40" viewBox="0 0 130 40" fill="none" xmlns="http://www.w3.org/2000/svg">
<path d="M18.3501 14.464C17.5531 12.801 16.4287 11.4912 14.9768 10.5364C13.5367 9.56976 11.8342 9.08447 9.86943 9.08447C7.90462 9.08447 6.22585 9.56976 4.87652 10.5364C4.60626 10.7297 4.34783 10.9368 4.10519 11.1598V9.66642H0L0 39.8547H4.68319L4.68319 29.5118C4.76605 29.5749 4.8489 29.6361 4.93373 29.6953C6.3087 30.6639 8.01114 31.1472 10.043 31.1472C11.9565 31.1472 13.6274 30.6639 15.0537 29.6953C16.48 28.7286 17.5847 27.4128 18.3698 25.7479C19.153 24.0849 19.5455 22.2069 19.5455 20.1178C19.5455 18.0287 19.147 16.1172 18.3501 14.466V14.464ZM14.0516 23.5976C13.6787 24.6313 13.1007 25.45 12.3176 26.0556C11.5324 26.6632 10.5362 26.965 9.32891 26.965C8.12161 26.965 7.07411 26.681 6.30278 26.1148C5.54526 25.5329 4.98502 24.728 4.62599 23.6963C4.27879 22.6626 4.10519 21.4691 4.10519 20.1158C4.10519 18.7626 4.27879 17.5553 4.62599 16.5354C4.98502 15.5036 5.53737 14.7027 6.28305 14.1366C7.02874 13.5546 7.99339 13.2646 9.17504 13.2646C10.4218 13.2646 11.4496 13.5743 12.2584 14.1938C13.0692 14.7994 13.6669 15.626 14.0516 16.6715C14.4362 17.7032 14.6296 18.8513 14.6296 20.1158C14.6296 21.3803 14.4362 22.5541 14.0516 23.5976Z" fill="#F6FBFF"/>
<path d="M40.4026 15.2398C40.3257 14.4645 40.1008 13.7109 39.728 12.9751C39.0474 11.5942 37.9999 10.602 36.5874 9.99438C35.1868 9.38876 33.5613 9.08496 31.7089 9.08496C29.2549 9.08496 27.3019 9.62154 25.85 10.6907C24.4099 11.7619 23.4334 13.1823 22.9205 14.9498L27.1599 16.2834C27.5071 15.2141 28.1186 14.4586 28.9925 14.0207C29.8664 13.5807 30.7719 13.3618 31.7089 13.3618C33.2654 13.3618 34.3701 13.705 35.025 14.3876C35.5695 14.9577 35.8832 15.7902 35.966 16.887C35.1237 17.0133 34.303 17.1356 33.5021 17.2519C32.1922 17.4315 30.9711 17.6327 29.8408 17.8516C28.7223 18.0706 27.7458 18.3152 26.9093 18.5875C25.8046 18.9603 24.9051 19.4456 24.2127 20.0394C23.5183 20.6194 23.0034 21.3157 22.67 22.1285C22.3347 22.9274 22.1689 23.8309 22.1689 24.837C22.1689 25.9851 22.4313 27.0366 22.958 27.9913C23.4985 28.9461 24.2896 29.7135 25.3292 30.2955C26.3708 30.8616 27.6432 31.1457 29.1464 31.1457C31.0224 31.1457 32.5848 30.7985 33.8296 30.1002C34.7982 29.5557 35.6721 28.7745 36.4513 27.7546V30.5657H40.519V17.7353C40.519 16.8318 40.4796 16.0013 40.4026 15.2398ZM35.8536 21.9351C35.8279 22.6966 35.6938 23.3732 35.4492 23.967C35.2953 24.4444 34.9935 24.9534 34.5437 25.4959C34.1058 26.0364 33.5159 26.496 32.7702 26.8689C32.0246 27.2437 31.125 27.4311 30.0716 27.4311C29.3397 27.4311 28.7223 27.3147 28.2212 27.0819C27.732 26.8491 27.3591 26.5414 27.1027 26.1528C26.8462 25.7543 26.718 25.2947 26.718 24.7798C26.718 24.328 26.8147 23.9355 27.006 23.5981C27.2112 23.2628 27.5012 22.9669 27.874 22.7084C28.2468 22.45 28.7025 22.2251 29.2431 22.0318C29.7954 21.8503 30.4306 21.6905 31.1507 21.5485C31.8707 21.3927 32.7308 21.2309 33.7329 21.0632C34.376 20.9567 35.098 20.8383 35.9029 20.7121C35.893 21.0672 35.8773 21.4755 35.8536 21.9351Z" fill="#F6FBFF"/>
<path d="M58.1501 9.66748L52.4944 24.6225L46.6808 9.66748H41.8438L50.2593 30.4203L46.8367 39.8557H51.1924L62.7958 9.66748H58.1501Z" fill="#F6FBFF"/>
<path d="M65.3682 30.5645L65.4076 2.11816H70.1105V19.7285L77.7252 9.66572H83.5269L75.4506 20.1151L84.2213 30.5645H78.0724L70.1105 20.5018V30.5645H65.3682Z" fill="#F6FBFF"/>
<path d="M91.8508 9.66406H87.2051V30.5629H91.8508V9.66406Z" fill="#F6FBFF"/>
<path d="M100.043 2.11963H95.3975V30.566H100.043V2.11963Z" fill="#F6FBFF"/>
<path d="M108.243 2.11768H103.598V30.564H108.243V2.11768Z" fill="#F6FBFF"/>
<path d="M129.279 15.2378C129.2 14.4626 128.975 13.709 128.602 12.9732C127.921 11.5923 126.874 10.6 125.461 9.99242C124.061 9.3868 122.435 9.08301 120.583 9.08301C118.129 9.08301 116.176 9.61958 114.724 10.6888C113.284 11.76 112.307 13.1803 111.795 14.9479L116.034 16.2814C116.381 15.2122 116.993 14.4566 117.867 14.0187C118.74 13.5788 119.646 13.3598 120.583 13.3598C122.139 13.3598 123.244 13.7031 123.899 14.3856C124.444 14.9557 124.757 15.7882 124.84 16.885C123.998 17.0113 123.177 17.1336 122.376 17.25C121.066 17.4295 119.845 17.6307 118.715 17.8497C117.596 18.0687 116.62 18.3133 115.785 18.5855C114.679 18.9584 113.779 19.4436 113.087 20.0374C112.392 20.6174 111.877 21.3138 111.544 22.1265C111.209 22.9255 111.043 23.829 111.043 24.835C111.043 25.9831 111.305 27.0346 111.832 27.9894C112.373 28.9442 113.164 29.7116 114.203 30.2935C115.245 30.8597 116.517 31.1437 118.02 31.1437C119.896 31.1437 121.457 30.7965 122.704 30.0982C123.672 29.5537 124.548 28.7706 125.325 27.7487V30.5638H129.393V17.7333C129.393 16.8298 129.356 15.9993 129.279 15.2378ZM124.73 21.9332C124.702 22.6947 124.568 23.3713 124.323 23.9651C124.169 24.4425 123.868 24.9514 123.418 25.4939C122.98 26.0344 122.39 26.4941 121.644 26.8669C120.899 27.2417 119.999 27.4291 118.946 27.4291C118.214 27.4291 117.596 27.3127 117.095 27.08C116.606 26.8472 116.233 26.5394 115.977 26.1508C115.72 25.7523 115.592 25.2927 115.592 24.7778C115.592 24.3261 115.689 23.9335 115.88 23.5962C116.087 23.2608 116.375 22.9649 116.748 22.7065C117.121 22.4481 117.577 22.2232 118.117 22.0299C118.669 21.8484 119.305 21.6886 120.025 21.5465C120.745 21.3907 121.607 21.2289 122.609 21.0613C123.25 20.9547 123.972 20.8364 124.777 20.7081C124.767 21.0632 124.751 21.4716 124.73 21.9332Z" fill="#F6FBFF"/>
<path d="M91.843 2.12061H87.1953V6.50395H91.843V2.12061Z" fill="#FF3516"/>
<path d="M25.5283 0L38.3154 3.1938V7.5081L25.5283 4.50368V0Z" fill="#FF3516"/>
</svg>
