<svg width="178" height="45" viewBox="0 0 178 45" fill="none" xmlns="http://www.w3.org/2000/svg">
<path fill-rule="evenodd" clip-rule="evenodd" d="M32.8442 11.6093C39.1185 11.6093 44.3548 17.0758 44.3548 23.6175C44.3547 30.1144 39.1186 35.5807 32.7992 35.5807C30.4972 35.5807 28.6012 34.8191 27.2019 33.3853V41.9831L20.341 45V12.1021H26.9762V14.0287C28.4206 12.4157 30.4068 11.6093 32.8442 11.6093ZM31.9866 18.0166C30.0457 18.0166 28.195 19.0919 27.2019 20.7945V26.3507C28.195 28.0533 30.0457 29.1287 31.9866 29.1287C35.056 29.1287 37.4936 26.6193 37.4936 23.5725C37.4936 20.5257 35.056 18.0166 31.9866 18.0166Z" fill="#FF3516"/>
<path d="M78.6378 23.7968L84.3706 12.1021H91.7732L77.9921 40.1256L68.4918 44.4962L74.9818 31.2346L65.1865 12.1021H72.6796L78.6378 23.7968Z" fill="#FF3516"/>
<path fill-rule="evenodd" clip-rule="evenodd" d="M164.583 11.5553C171.497 11.5553 176 15.3321 176 21.0872V31.7598L169.314 34.8156V33.4517C168.04 34.8904 166.039 35.61 163.492 35.61C158.716 35.61 155.532 32.8673 155.532 28.7308C155.532 25.0889 158.033 22.7507 162.673 21.9864L169.086 20.9074C168.95 18.7943 167.13 17.5351 164.037 17.5351C161.263 17.5351 158.67 18.5693 156.669 20.3228V13.8034C158.579 12.3647 161.445 11.5553 164.583 11.5553ZM164.401 26.3927C162.855 26.6624 162.036 27.3819 162.036 28.461C162.036 29.7199 163.128 30.4844 164.902 30.4844C166.63 30.4844 168.313 29.7198 169.086 28.8206V25.5835L164.401 26.3927Z" fill="#F6FBFF"/>
<path fill-rule="evenodd" clip-rule="evenodd" d="M53.6843 11.6093C60.5454 11.6093 65.0141 15.3731 65.0141 21.1083V31.9437L58.3787 34.9658V33.43C57.1148 34.8638 55.1287 35.5807 52.6009 35.5807C47.8614 35.5807 44.7017 32.8476 44.7017 28.7254C44.7017 25.0961 47.1844 22.7661 51.7885 22.0044L58.153 20.929C58.0176 18.8231 56.212 17.5685 53.1426 17.5685C50.3892 17.5685 47.8164 18.5991 45.8303 20.3465V13.8497C47.7261 12.4159 50.5698 11.6093 53.6843 11.6093ZM53.5038 26.3955C51.9691 26.6643 51.1566 27.3813 51.1566 28.4567C51.1567 29.7111 52.2399 30.4728 54.0003 30.4728C55.7155 30.4728 57.3856 29.711 58.153 28.8149V25.5889L53.5038 26.3955Z" fill="#FF3516"/>
<path d="M101.662 20.9074L109.394 12.0499H118.127L108.12 23.5602L118.127 35.0704H109.394L101.662 26.2129V31.0186L94.7479 34.1497V0H101.662V20.9074Z" fill="#F6FBFF"/>
<path d="M127.425 35.0704H120.511V12.0499H127.425V35.0704Z" fill="#F6FBFF"/>
<path d="M139.462 35.0704H132.548V7.5811L139.462 4.47289V35.0704Z" fill="#F6FBFF"/>
<path d="M151.499 35.0704H144.586V7.40415L151.499 4.25839V35.0704Z" fill="#F6FBFF"/>
<path d="M17.2335 35.0599H0L17.2335 27.4119V35.0599Z" fill="#FF3516"/>
<path d="M17.2335 27.4114H0L17.2335 19.7637V27.4114Z" fill="#FF3516"/>
<path d="M17.2335 19.7637H0L17.2335 12.1155V19.7637Z" fill="#FF3516"/>
<path d="M124.013 0.0900185C126.333 0.0900803 128.243 1.97843 128.243 4.2265C128.243 6.51949 126.333 8.40792 124.013 8.40799C121.694 8.40799 119.783 6.51953 119.783 4.2265C119.783 1.9784 121.694 0.0900185 124.013 0.0900185Z" fill="#F6FBFF"/>
</svg>
