<svg width="1920" height="592" viewBox="0 0 1920 592" fill="none" xmlns="http://www.w3.org/2000/svg">
<path opacity="0.38" d="M272.296 214.652C260.47 189.976 243.784 170.539 222.24 156.371C200.87 142.027 175.608 134.826 146.452 134.826C117.296 134.826 92.3852 142.027 72.3625 156.371C68.3522 159.239 64.5174 162.313 60.9168 165.621V143.462H0V591.42H69.4938V437.944C70.7232 438.88 71.9527 439.788 73.2114 440.666C93.6146 455.039 118.877 462.211 149.028 462.211C177.423 462.211 202.217 455.039 223.381 440.666C244.546 426.322 260.938 406.798 272.589 382.092C284.21 357.415 290.036 329.547 290.036 298.548C290.036 267.548 284.122 239.183 272.296 214.682V214.652ZM208.511 350.184C202.978 365.523 194.401 377.671 182.78 386.658C171.129 395.674 156.346 400.153 138.431 400.153C120.516 400.153 104.973 395.937 93.5268 387.536C82.286 378.901 73.9725 366.958 68.6449 351.648C63.4928 336.309 60.9168 318.599 60.9168 298.518C60.9168 278.437 63.4928 260.523 68.6449 245.389C73.9725 230.079 82.1689 218.194 93.2341 209.793C104.299 201.158 118.614 196.855 136.148 196.855C154.649 196.855 169.9 201.451 181.902 210.642C193.933 219.629 202.802 231.894 208.511 247.408C214.219 262.718 217.088 279.755 217.088 298.518C217.088 317.282 214.219 334.699 208.511 350.184Z" fill="#2E3846"/>
<path opacity="0.38" d="M599.569 226.157C598.427 214.652 595.09 203.47 589.557 192.552C579.458 172.061 563.914 157.337 542.955 148.321C522.171 139.334 498.05 134.826 470.563 134.826C434.148 134.826 405.168 142.788 383.623 158.654C362.254 174.549 347.764 195.625 340.153 221.854L403.06 241.642C408.212 225.776 417.287 214.565 430.255 208.066C443.222 201.538 456.659 198.289 470.563 198.289C493.66 198.289 510.052 203.383 519.771 213.511C527.85 221.971 532.505 234.324 533.734 250.599C521.235 252.473 509.057 254.288 497.172 256.015C477.735 258.678 459.615 261.664 442.842 264.913C426.244 268.163 411.754 271.793 399.342 275.832C382.95 281.365 369.601 288.566 359.326 297.377C349.022 305.983 341.382 316.316 336.435 328.376C331.459 340.232 329 353.639 329 368.568C329 385.604 332.893 401.207 340.709 415.374C348.73 429.542 360.468 440.929 375.895 449.565C391.351 457.966 410.232 462.181 432.538 462.181C460.376 462.181 483.56 457.029 502.032 446.667C516.405 438.588 529.372 426.996 540.935 411.862V453.575H601.296V263.186C601.296 249.78 600.71 237.456 599.569 226.157ZM532.066 325.508C531.685 336.807 529.694 346.847 526.065 355.658C523.781 362.742 519.303 370.295 512.628 378.345C506.13 386.365 497.377 393.186 486.312 398.718C475.247 404.28 461.898 407.061 446.267 407.061C435.407 407.061 426.244 405.334 418.809 401.88C411.549 398.426 406.017 393.859 402.211 388.092C398.406 382.179 396.503 375.359 396.503 367.719C396.503 361.015 397.937 355.19 400.777 350.184C403.821 345.208 408.124 340.817 413.657 336.983C419.189 333.148 425.951 329.811 433.972 326.942C442.169 324.249 451.594 321.878 462.279 319.77C472.964 317.458 485.727 315.057 500.597 312.569C510.14 310.988 520.854 309.232 532.797 307.359C532.651 312.628 532.417 318.687 532.066 325.508Z" fill="#2E3846"/>
<path opacity="0.38" d="M862.981 143.467L779.056 365.382L692.789 143.467H621.012L745.89 451.414L695.101 591.425H759.736L931.919 143.467H862.981Z" fill="#2E3846"/>
<path opacity="0.38" d="M969.988 453.579L970.574 31.4688H1040.36V292.785L1153.35 143.466H1239.45L1119.6 298.522L1249.75 453.579H1158.51L1040.36 304.26V453.579H969.988Z" fill="#2E3846"/>
<path opacity="0.38" d="M1362.92 143.467H1293.98V453.58H1362.92V143.467Z" fill="#2E3846"/>
<path opacity="0.38" d="M1484.53 31.4688H1415.59V453.579H1484.53V31.4688Z" fill="#2E3846"/>
<path opacity="0.38" d="M1606.18 31.4688H1537.24V453.579H1606.18V31.4688Z" fill="#2E3846"/>
<path opacity="0.38" d="M1918.3 226.157C1917.13 214.652 1913.79 203.47 1908.26 192.552C1898.16 172.061 1882.62 157.337 1861.66 148.321C1840.88 139.334 1816.75 134.826 1789.27 134.826C1752.85 134.826 1723.87 142.788 1702.33 158.654C1680.96 174.549 1666.47 195.625 1658.86 221.854L1721.76 241.642C1726.92 225.776 1735.99 214.565 1748.96 208.066C1761.93 201.538 1775.36 198.289 1789.27 198.289C1812.36 198.289 1828.76 203.383 1838.48 213.511C1846.55 221.971 1851.21 234.324 1852.44 250.599C1839.94 252.473 1827.76 254.288 1815.88 256.015C1796.44 258.678 1778.32 261.664 1761.55 264.913C1744.95 268.163 1730.46 271.793 1718.08 275.832C1701.65 281.365 1688.31 288.566 1678.03 297.377C1667.73 305.983 1660.09 316.316 1655.14 328.376C1650.16 340.232 1647.7 353.639 1647.7 368.568C1647.7 385.604 1651.6 401.207 1659.41 415.374C1667.43 429.542 1679.17 440.929 1694.6 449.565C1710.06 457.966 1728.94 462.181 1751.24 462.181C1779.08 462.181 1802.24 457.029 1820.74 446.667C1835.11 438.588 1848.11 426.966 1859.64 411.803V453.575H1920V263.186C1920 249.78 1919.44 237.456 1918.3 226.157ZM1850.8 325.508C1850.39 336.807 1848.4 346.847 1844.77 355.658C1842.49 362.742 1838.01 370.295 1831.33 378.345C1824.83 386.365 1816.08 393.186 1805.02 398.718C1793.95 404.28 1780.6 407.061 1764.97 407.061C1754.11 407.061 1744.95 405.334 1737.51 401.88C1730.25 398.426 1724.72 393.859 1720.92 388.092C1717.11 382.179 1715.21 375.359 1715.21 367.719C1715.21 361.015 1716.64 355.19 1719.48 350.184C1722.55 345.208 1726.83 340.817 1732.36 336.983C1737.89 333.148 1744.66 329.811 1752.68 326.942C1760.87 324.249 1770.3 321.878 1780.98 319.77C1791.67 317.458 1804.46 315.057 1819.33 312.569C1828.84 310.988 1839.56 309.232 1851.5 307.329C1851.36 312.598 1851.12 318.658 1850.8 325.508Z" fill="#2E3846"/>
<path d="M1362.95 31.4688H1293.98V96.5124H1362.95V31.4688Z" fill="#FF3516"/>
<path d="M378.848 0L568.594 47.3923V111.411L378.848 66.8293V0Z" fill="#FF3516"/>
</svg>
