<svg width="1921" height="496" viewBox="0 0 1921 496" fill="none" xmlns="http://www.w3.org/2000/svg">
<g clip-path="url(#clip0_2021_1154)">
<path d="M1193.4 386.43L1109.05 288.831V341.782L1033.63 376.286V0H1109.05V230.372L1193.4 132.773H1288.67L1179.51 259.601L1288.67 386.43H1193.4Z" fill="#2E3846"/>
<path d="M1314.68 386.429V132.773H1390.1V386.429H1314.68ZM1352.89 92.6435C1327.58 92.6435 1306.74 71.8359 1306.74 46.5692C1306.74 21.798 1327.58 0.990234 1352.89 0.990234C1378.19 0.990234 1399.03 21.798 1399.03 46.5692C1399.03 71.8359 1378.19 92.6435 1352.89 92.6435Z" fill="#2E3846"/>
<path d="M1446 386.43V0H1521.42V386.43H1446Z" fill="#2E3846"/>
<path d="M1577.32 386.43V81.5855L1652.74 46.9219V386.43H1577.32Z" fill="#2E3846"/>
<path d="M1847.08 383.623V368.596C1833.18 384.449 1811.35 392.375 1783.56 392.375C1731.46 392.375 1696.73 362.155 1696.73 316.576C1696.73 276.446 1724.02 250.685 1774.63 242.263L1844.6 230.372C1843.11 207.088 1823.26 193.216 1789.52 193.216C1759.25 193.216 1730.97 204.61 1709.13 223.932V152.095C1729.97 136.242 1761.23 127.324 1795.47 127.324C1870.89 127.324 1920.02 168.94 1920.02 232.354V349.953L1847.08 383.623ZM1798.95 335.898C1817.8 335.898 1836.16 327.476 1844.6 317.566V281.897L1793.49 290.813C1776.62 293.787 1767.68 301.713 1767.68 313.603C1767.68 327.476 1779.59 335.898 1798.95 335.898Z" fill="#2E3846"/>
<path fill-rule="evenodd" clip-rule="evenodd" d="M358.306 127.922C426.754 127.922 483.873 188.155 483.873 260.236C483.873 331.824 426.754 392.057 357.815 392.057C332.699 392.057 312.017 383.663 296.752 367.863V462.602L221.903 495.843V133.354H294.289V154.581C310.048 136.808 331.714 127.922 358.306 127.922ZM348.95 198.523C327.775 198.523 307.584 210.372 296.752 229.133V290.352C307.584 309.114 327.775 320.962 348.95 320.962C382.433 320.962 409.026 293.314 409.026 259.743C409.026 226.17 382.433 198.523 348.95 198.523Z" fill="#FF3516"/>
<path d="M857.877 262.21L920.417 133.354H1001.17L850.832 442.136L747.189 490.291L817.989 344.166L711.134 133.354H792.876L857.877 262.21Z" fill="#FF3516"/>
<path fill-rule="evenodd" clip-rule="evenodd" d="M585.654 127.922C660.503 127.922 709.252 169.395 709.252 232.589V351.982L636.866 385.281V368.357C623.076 384.157 601.41 392.057 573.837 392.057C522.131 392.057 487.662 361.938 487.662 316.518C487.662 276.527 514.744 250.855 564.972 242.462L634.402 230.614C632.927 207.41 613.228 193.585 579.744 193.585C549.705 193.586 521.637 204.941 499.971 224.195V152.606C520.654 136.808 551.676 127.922 585.654 127.922ZM583.683 290.846C566.941 293.808 558.076 301.708 558.076 313.559C558.078 327.382 569.896 335.773 589.101 335.773C607.812 335.773 626.031 327.379 634.402 317.505V281.959L583.683 290.846Z" fill="#FF3516"/>
<path d="M188.003 133.5V217.772H0L188.003 133.5Z" fill="#FF3516"/>
<path d="M188.003 217.771V302.043H0L188.003 217.771Z" fill="#FF3516"/>
<path d="M188.003 302.043V386.315H0L188.003 302.043Z" fill="#FF3516"/>
</g>
<defs>
<clipPath id="clip0_2021_1154">
<rect width="1921" height="496" fill="white"/>
</clipPath>
</defs>
</svg>
