<svg width="154" height="40" viewBox="0 0 154 40" fill="none" xmlns="http://www.w3.org/2000/svg">
<g clip-path="url(#clip0_104_25403)">
<path d="M95.67 31.1637L88.9077 23.2928V27.5631L82.8613 30.3456V0H88.9077V18.5784L95.67 10.7075H103.308L94.5563 20.9355L103.308 31.1637H95.67Z" fill="#F6FBFF"/>
<path d="M105.392 31.1639V10.7077H111.439V31.1639H105.392ZM108.455 7.47147C106.427 7.47147 104.756 5.79343 104.756 3.7558C104.756 1.75812 106.427 0.0800781 108.455 0.0800781C110.484 0.0800781 112.155 1.75812 112.155 3.7558C112.155 5.79343 110.484 7.47147 108.455 7.47147Z" fill="#F6FBFF"/>
<path d="M115.92 31.1637V0H121.966V31.1637H115.92Z" fill="#F6FBFF"/>
<path d="M126.447 31.1639V6.57964L132.494 3.78418V31.1639H126.447Z" fill="#F6FBFF"/>
<path d="M148.074 30.9368V29.725C146.961 31.0034 145.21 31.6426 142.983 31.6426C138.806 31.6426 136.021 29.2056 136.021 25.5298C136.021 22.2935 138.209 20.216 142.267 19.5368L147.876 18.5779C147.756 16.7001 146.165 15.5814 143.46 15.5814C141.034 15.5814 138.766 16.5003 137.016 18.0585V12.2652C138.687 10.9867 141.193 10.2676 143.938 10.2676C149.984 10.2676 153.922 13.6237 153.922 18.7377V28.2215L148.074 30.9368ZM144.216 27.0881C145.728 27.0881 147.199 26.4089 147.876 25.6096V22.7331L143.778 23.4522C142.426 23.692 141.71 24.3312 141.71 25.29C141.71 26.4089 142.665 27.0881 144.216 27.0881Z" fill="#F6FBFF"/>
<path fill-rule="evenodd" clip-rule="evenodd" d="M28.7241 10.3164C34.2113 10.3164 38.7903 15.1739 38.7903 20.9869C38.7903 26.7601 34.2113 31.6176 28.6847 31.6176C26.6713 31.6176 25.0132 30.9407 23.7895 29.6665V37.3067L17.7891 39.9875V10.7544H23.592V12.4664C24.8553 11.033 26.5922 10.3164 28.7241 10.3164ZM27.974 16.0101C26.2765 16.0101 24.6579 16.9656 23.7895 18.4786V23.4156C24.6579 24.9287 26.2765 25.8842 27.974 25.8842C30.6582 25.8842 32.7901 23.6545 32.7901 20.9471C32.7901 18.2397 30.6582 16.0101 27.974 16.0101Z" fill="#FF3516"/>
<path d="M68.7737 21.1456L73.7873 10.7539H80.2613L68.2089 35.6557L59.9002 39.5392L65.576 27.7549L57.0098 10.7539H63.5628L68.7737 21.1456Z" fill="#FF3516"/>
<path fill-rule="evenodd" clip-rule="evenodd" d="M46.9495 10.3164C52.9499 10.3164 56.8579 13.661 56.8579 18.7573V28.3857L51.0549 31.0712V29.7063C49.9495 30.9805 48.2126 31.6176 46.0021 31.6176C41.8571 31.6176 39.0938 29.1887 39.0938 25.5257C39.0938 22.3007 41.2648 20.2304 45.2914 19.5535L50.8575 18.598C50.7392 16.7267 49.16 15.6118 46.4757 15.6118C44.0675 15.6119 41.8174 16.5276 40.0806 18.0804V12.3071C41.7386 11.033 44.2256 10.3164 46.9495 10.3164ZM46.7914 23.4555C45.4493 23.6943 44.7386 24.3314 44.7386 25.2871C44.7388 26.4019 45.6862 27.0786 47.2258 27.0786C48.7258 27.0786 50.1864 26.4017 50.8575 25.6054V22.7388L46.7914 23.4555Z" fill="#FF3516"/>
<path d="M15.0715 10.7656V17.5617H0L15.0715 10.7656Z" fill="#FF3516"/>
<path d="M15.0715 17.5625V24.3586H0L15.0715 17.5625Z" fill="#FF3516"/>
<path d="M15.0715 24.3584V31.1545H0L15.0715 24.3584Z" fill="#FF3516"/>
</g>
<defs>
<clipPath id="clip0_104_25403">
<rect width="154" height="40" fill="white"/>
</clipPath>
</defs>
</svg>
